<svg version="1.1" xmlns="http://www.w3.org/2000/svg" xmlns:xlink="http://www.w3.org/1999/xlink" width="48" height="48"><defs><linearGradient x1="12.19986" y1="7.72645" x2="91.88531" y2="96.35877" gradientUnits="userSpaceOnUse" id="color-1"><stop offset="0" stop-color="#000000" stop-opacity="0.46"></stop><stop offset="1" stop-color="#000000" stop-opacity="0"></stop></linearGradient><filter id="dropshadow-base"><feColorMatrix type="matrix" values="0 0 0 0 0  0 0 0 0 0  0 0 0 0 0  0 0 0 .8 0"></feColorMatrix> <feOffset dx="0" dy="1"></feOffset> <feGaussianBlur stdDeviation="1"></feGaussianBlur> <feComposite in="SourceGraphic"></feComposite></filter><filter id="dropshadow-banner" x="-10%" y="-10%" width="120%" height="130%"><feColorMatrix type="matrix" values="0 0 0 0 0  0 0 0 0 0  0 0 0 0 0  0 0 0 .4 0"></feColorMatrix> <feOffset dx="0" dy="1"></feOffset> <feGaussianBlur stdDeviation="0.5"></feGaussianBlur> <feComposite in="SourceGraphic"></feComposite></filter></defs><g fill="none" fill-rule="nonzero" stroke="none" stroke-width="none" stroke-linecap="butt" stroke-linejoin="miter" stroke-miterlimit="none" stroke-dasharray="" stroke-dashoffset="0" font-family="none" font-weight="none" font-size="none" text-anchor="none" style="mix-blend-mode: normal"><path d="M5,45c-1.10457,0 -2,-0.89543 -2,-2v-38c0,-1.10457 0.89543,-2 2,-2h38c1.10457,0 2,0.89543 2,2v38c0,1.10457 -0.89543,2 -2,2z" id="base 1 1" fill="#9c27b0" stroke-width="1" stroke-miterlimit="10" filter="url(#dropshadow-base)"></path><path d="M16.02608,11.13174h-0.08673l-0.00256,0.00086c-2.00943,0.03844 -3.73693,1.37079 -3.73693,3.15699c0,0.77664 0.3288,1.46979 0.86659,2.00758l0.73458,0.73458c-0.90988,0.43761 -1.54194,1.36968 -1.54194,2.44194v20.79985l4.72645,4.72645h26.01446c1.10457,0 2,-0.89543 2,-2l0,-19.93802l-9.92415,-9.92415c-0.35288,-0.35288 -0.81306,-0.62403 -1.33119,-0.78479l-2.32513,-2.32513c-0.76448,-0.76448 -1.92397,-1.23546 -3.17249,-1.23546c-1.06224,0 -1.99573,0.37809 -2.73955,0.9554l-0.57411,-0.57411c-0.87756,-0.87756 -2.13272,-1.44729 -3.58784,-1.44729c-0.00001,0 -0.00001,0 -0.00002,0l-0.00001,0c-2.41984,0.00001 -4.41307,1.47975 -4.76104,3.46452c-0.18506,-0.022 -0.36112,-0.05923 -0.55839,-0.05923z" fill="url(#color-1)" stroke-width="1" stroke-miterlimit="10"></path><path d="M21.34556,7.72646c-2.41986,0 -4.4131,1.47974 -4.76108,3.46453c-0.18506,-0.02199 -0.36113,-0.05922 -0.55839,-0.05922l0,0l0,0h-0.08672l-0.00256,0.00085c-2.00942,0.03843 -3.73693,1.37079 -3.73693,3.15698c0,1.1496 0.7204,2.11623 1.77264,2.6669c-1.00097,0.39841 -1.71342,1.37879 -1.71342,2.5172v20.79985l5.09738,-5.09738h14.9368c1.4888,0 2.70732,-1.21852 2.70732,-2.70732v-12.99515c0,-0.91821 -0.46191,-1.72995 -1.16206,-2.21953c1.12906,-0.38276 1.96157,-1.29406 1.96157,-2.43156c0,-1.51377 -1.4723,-2.63541 -3.15995,-2.63541c-0.1071,0 -0.20013,0.03571 -0.30457,0.04442c0.00053,-0.02177 0.00843,-0.04163 0.00843,-0.06345c0,-1.93348 -1.91214,-3.37569 -4.09694,-3.37569c-1.08834,0 -2.04154,0.39691 -2.79404,0.99833c-0.85787,-1.21823 -2.3342,-2.06433 -4.1075,-2.06433zM21.34556,8.73747c1.6636,0 3.06647,0.83504 3.60412,1.9057l0.32149,0.63876l0.49282,-0.51608c0.55792,-0.58204 1.45507,-0.96448 2.48312,-0.96448c1.74565,0 3.08592,1.12236 3.08592,2.36679c0,0.16404 -0.02633,0.35062 -0.07192,0.5182l-0.239,0.87565l0.87142,-0.26016c0.22057,-0.06612 0.47843,-0.10575 0.74663,-0.10575c1.24888,0 2.14894,0.79296 2.14894,1.62651c0,0.83355 -0.89799,1.61593 -2.14894,1.61593h-16.61407c-1.61046,0 -2.81519,-1.02949 -2.81519,-2.14894c0,-1.13059 1.20307,-2.14894 2.81519,-2.14894c0.29042,0 0.55861,0.03244 0.82066,0.08883l0.60703,0.12902l0.00423,-0.61972c0.00932,-1.59323 1.67701,-3.00132 3.88755,-3.00132zM14.96643,17.8493h17.32686c0.89916,0 1.62439,0.71503 1.62439,1.62439v12.99515c0,0.90354 -0.72085,1.62439 -1.62439,1.62439h-15.38521l-3.56605,3.56605v-18.18559c0,-0.90354 0.72085,-1.62439 1.62439,-1.62439zM19.15208,23.28734c-0.2599,-0.22525 -0.55157,-0.39852 -0.87501,-0.51981c-0.31766,-0.12706 -0.68152,-0.1906 -1.09159,-0.1906c-0.32343,0 -0.61799,0.04043 -0.88367,0.12129c-0.26568,0.07508 -0.4967,0.18771 -0.69307,0.33787c-0.19637,0.14439 -0.34943,0.32921 -0.45916,0.55446c-0.10396,0.21947 -0.15594,0.47071 -0.15594,0.75372c0,0.24835 0.04043,0.45916 0.12129,0.63243c0.08663,0.16749 0.2137,0.31188 0.38119,0.43317c0.16749,0.12129 0.37253,0.22236 0.6151,0.30322c0.24258,0.08086 0.52558,0.15883 0.84902,0.23391c0.30611,0.06931 0.57467,0.13861 0.8057,0.20792c0.23102,0.06931 0.42451,0.15305 0.58045,0.25124c0.15594,0.09241 0.27145,0.20503 0.34654,0.33787c0.08086,0.12706 0.12129,0.28589 0.12129,0.47649c0,0.35809 -0.13861,0.62665 -0.41584,0.8057c-0.27145,0.17327 -0.65265,0.2599 -1.14357,0.2599c-0.2368,0 -0.46205,-0.02021 -0.67575,-0.06064c-0.2137,-0.0462 -0.41584,-0.10685 -0.60644,-0.18193c-0.18482,-0.08086 -0.3552,-0.17327 -0.51114,-0.27723c-0.15017,-0.10396 -0.28012,-0.2137 -0.38985,-0.32921l-0.30322,0.49382c0.69307,0.59489 1.5161,0.89233 2.46908,0.89233c0.32343,0 0.62088,-0.03177 0.89233,-0.0953c0.27145,-0.06931 0.50537,-0.17327 0.70174,-0.31188c0.19637,-0.13861 0.34943,-0.31188 0.45916,-0.51981c0.10974,-0.20792 0.16461,-0.45339 0.16461,-0.73639c0,-0.27723 -0.04909,-0.50825 -0.14728,-0.69307c-0.09819,-0.18482 -0.23969,-0.34076 -0.42451,-0.46783c-0.18482,-0.13284 -0.41007,-0.24258 -0.67575,-0.32921c-0.2599,-0.08663 -0.55446,-0.16461 -0.88367,-0.23391c-0.29456,-0.06353 -0.55157,-0.12706 -0.77105,-0.1906c-0.2137,-0.06353 -0.38985,-0.13861 -0.52847,-0.22525c-0.13861,-0.08663 -0.24258,-0.18771 -0.31188,-0.30322c-0.06353,-0.12129 -0.0953,-0.27434 -0.0953,-0.45916c0,-0.35231 0.12418,-0.62954 0.37253,-0.83169c0.24835,-0.20792 0.64398,-0.31188 1.18689,-0.31188c0.36964,0 0.69885,0.06064 0.98763,0.18193c0.28878,0.12129 0.51981,0.28012 0.69307,0.47649zM26.58029,28.77129v-6.15104h-0.6151l-2.4171,4.21043l-2.39977,-4.21043h-0.62377v6.15104h0.60644v-5.05078l2.24383,3.90721h0.3552l2.24383,-3.90721v5.05078zM32.01186,23.28734c-0.2599,-0.22525 -0.55157,-0.39852 -0.87501,-0.51981c-0.31766,-0.12706 -0.68152,-0.1906 -1.09159,-0.1906c-0.32343,0 -0.61799,0.04043 -0.88367,0.12129c-0.26568,0.07508 -0.4967,0.18771 -0.69307,0.33787c-0.19637,0.14439 -0.34943,0.32921 -0.45916,0.55446c-0.10396,0.21947 -0.15594,0.47071 -0.15594,0.75372c0,0.24835 0.04043,0.45916 0.12129,0.63243c0.08663,0.16749 0.2137,0.31188 0.38119,0.43317c0.16749,0.12129 0.37253,0.22236 0.6151,0.30322c0.24258,0.08086 0.52558,0.15883 0.84902,0.23391c0.30611,0.06931 0.57467,0.13861 0.8057,0.20792c0.23102,0.06931 0.42451,0.15305 0.58045,0.25124c0.15594,0.09241 0.27145,0.20503 0.34654,0.33787c0.08086,0.12706 0.12129,0.28589 0.12129,0.47649c0,0.35809 -0.13861,0.62665 -0.41584,0.8057c-0.27145,0.17327 -0.65265,0.2599 -1.14357,0.2599c-0.2368,0 -0.46205,-0.02021 -0.67575,-0.06064c-0.2137,-0.0462 -0.41584,-0.10685 -0.60644,-0.18193c-0.18482,-0.08086 -0.3552,-0.17327 -0.51114,-0.27723c-0.15017,-0.10396 -0.28012,-0.2137 -0.38985,-0.32921l-0.30322,0.49382c0.69307,0.59489 1.5161,0.89233 2.46908,0.89233c0.32343,0 0.62088,-0.03177 0.89233,-0.0953c0.27145,-0.06931 0.50537,-0.17327 0.70174,-0.31188c0.19637,-0.13861 0.34943,-0.31188 0.45916,-0.51981c0.10974,-0.20792 0.16461,-0.45339 0.16461,-0.73639c0,-0.27723 -0.04909,-0.50825 -0.14728,-0.69307c-0.09819,-0.18482 -0.23969,-0.34076 -0.42451,-0.46783c-0.18482,-0.13284 -0.41007,-0.24258 -0.67575,-0.32921c-0.2599,-0.08663 -0.55446,-0.16461 -0.88367,-0.23391c-0.29456,-0.06353 -0.55157,-0.12706 -0.77105,-0.1906c-0.2137,-0.06353 -0.38985,-0.13861 -0.52847,-0.22525c-0.13861,-0.08663 -0.24258,-0.18771 -0.31188,-0.30322c-0.06353,-0.12129 -0.0953,-0.27434 -0.0953,-0.45916c0,-0.35231 0.12418,-0.62954 0.37253,-0.83169c0.24835,-0.20792 0.64398,-0.31188 1.18689,-0.31188c0.36964,0 0.69885,0.06064 0.98763,0.18193c0.28878,0.12129 0.51981,0.28012 0.69307,0.47649z" id="path6500 1" fill="#ffffff" stroke-width="0" stroke-miterlimit="4"></path></g></svg>